PathFileType	4	(X/Y/Z)	C:\Users\Basilio\Documents\Thesis Gigler\squatting_fais\c3dfiles\044\SLS_front_pre5\markers_experimental.trc
DataRate	CameraRate	NumFrames	NumMarkers	Units	OrigDataRate	OrigDataStartFrame	OrigNumFrames
200.000000	200.000000	4	60	mm	200.000000	178	1427
Frame#	Time	FHD			LBHD			RBHD			C7			T10			LSHO			LUUPA			LMUPA			LDUPA			LLEP			LMEP			LUL			LRFIN			RSHO			RUPA1			RMUPA			RDUPA			RLEP			RMEP			RUL			RUFIN			LASI			RASI			USACR			LSACR			RSACR			LTHI1			LTHI2			LTHI3			LTHI4			LLFC			LMFC			LTIB1			LTIB2			LTIB3			LTIB4			LLMAL			LMMAL			LHEE			LMT1			LMT2			LMT5			RTHI			RTHI2			RTHI3			RTHI4			RLFC			RMFC			RTIB1			RTIB2			RTIB3			RTIB4			RLMAL			RHEE			RMT1			RMT2			RMT5			CLAV			RMMAL			LRAD			
		X1	Y1	Z1	X2	Y2	Z2	X3	Y3	Z3	X4	Y4	Z4	X5	Y5	Z5	X6	Y6	Z6	X7	Y7	Z7	X8	Y8	Z8	X9	Y9	Z9	X10	Y10	Z10	X11	Y11	Z11	X12	Y12	Z12	X13	Y13	Z13	X14	Y14	Z14	X15	Y15	Z15	X16	Y16	Z16	X17	Y17	Z17	X18	Y18	Z18	X19	Y19	Z19	X20	Y20	Z20	X21	Y21	Z21	X22	Y22	Z22	X23	Y23	Z23	X24	Y24	Z24	X25	Y25	Z25	X26	Y26	Z26	X27	Y27	Z27	X28	Y28	Z28	X29	Y29	Z29	X30	Y30	Z30	X31	Y31	Z31	X32	Y32	Z32	X33	Y33	Z33	X34	Y34	Z34	X35	Y35	Z35	X36	Y36	Z36	X37	Y37	Z37	X38	Y38	Z38	X39	Y39	Z39	X40	Y40	Z40	X41	Y41	Z41	X42	Y42	Z42	X43	Y43	Z43	X44	Y44	Z44	X45	Y45	Z45	X46	Y46	Z46	X47	Y47	Z47	X48	Y48	Z48	X49	Y49	Z49	X50	Y50	Z50	X51	Y51	Z51	X52	Y52	Z52	X53	Y53	Z53	X54	Y54	Z54	X55	Y55	Z55	X56	Y56	Z56	X57	Y57	Z57	X58	Y58	Z58	X59	Y59	Z59	X60	Y60	Z60	

179	0.89	-255.9149169921876	1805.478515625	-866.5571289062502	-389.981170654297	1759.355834960938	-936.428649902344	-421.928680419922	1738.161865234375	-774.340026855469	-428.912567138672	1560.829467773438	-864.0584716796877	-401.9595336914064	1258.025756835938	-864.2189941406252	-341.7535400390626	1593.73583984375	-1010.802673339844	-175.0424499511719	1575.488403320313	-1108.1923828125	-148.5055084228516	1585.7734375	-1066.76708984375	-106.31298828125	1571.618530273438	-1107.239868164063	-47.07373046875001	1572.104858398438	-1099.376220703125	-57.34046936035158	1495.021118164063	-1086.096801757813	204.3064880371094	1581.69775390625	-977.3525390625002	217.7564392089844	1593.672973632813	-875.3813476562502	-338.6494445800782	1571.815795898438	-706.5454101562501	-179.8224029541016	1544.705322265625	-608.3143310546876	-151.0502624511719	1562.746337890625	-647.3490600585939	-109.8854904174805	1546.064819335938	-605.9020385742189	-48.47398757934572	1551.242919921875	-616.1726684570314	-49.92053222656251	1470.914916992188	-632.1672973632814	201.9285888671876	1574.512451171875	-744.0013427734376	215.1077880859376	1564.845825195313	-858.6033935546877	-216.2340850830079	1077.046630859375	-980.8197021484377	-194.0003509521485	1064.12744140625	-763.9682617187501	-377.1735534667969	1114.044921875	-855.2166748046877	-381.6156311035157	1080.403076171875	-881.5132446289065	-374.9863891601563	1083.926635742188	-824.3206176757815	-308.2966613769532	835.5830688476565	-1056.79833984375	-271.3549194335938	759.8628540039064	-1063.868896484375	-223.1779785156251	764.4114379882814	-1060.418212890625	-295.0473937988282	705.2781982421876	-1051.340942382813	-270.3566284179688	547.9701538085939	-1050.167114257813	-253.3886871337891	532.9798583984376	-929.530212402344	-257.8603820800782	366.5628356933594	-989.496520996094	-289.3669128417969	326.8578796386719	-1063.0185546875	-258.5394592285157	321.4234924316407	-1027.576904296875	-279.5593872070313	243.1122283935547	-1002.809997558594	-342.5234069824219	133.6653747558594	-1054.93798828125	-321.2401733398438	138.3788146972657	-971.1192626953127	-407.8043518066407	111.755729675293	-1006.920776367188	-201.3633575439454	62.41080474853517	-985.4273681640627	-200.6901397705079	62.80273056030275	-1032.865478515625	-237.9902496337891	50.21192550659181	-1079.303466796875	-289.5817260742188	795.1555786132815	-678.5191040039064	-249.582504272461	740.6973266601564	-681.4853515625001	-218.7111206054688	742.3970336914064	-690.0007934570314	-277.9773254394532	661.4558715820314	-694.1213378906251	-285.0637512207032	545.2308959960939	-700.7846069335939	-301.7332763671876	538.1017456054689	-824.5081787109377	-252.2864837646485	413.892791748047	-729.4824218750001	-321.8708496093751	348.1162414550782	-674.4944458007814	-282.2573242187501	338.1799926757813	-695.2747192382814	-277.9223632812501	286.2633056640626	-721.3561401367189	-351.8941040039063	140.0473022460938	-697.7717895507814	-414.3211669921876	113.0942611694336	-737.7827148437501	-212.2860717773438	65.93829345703126	-772.9897460937502	-203.8220214843751	61.56278228759767	-736.6791992187501	-239.5764312744141	48.61462402343751	-681.1551513671876	-285.8267211914063	1541.05419921875	-869.5640258789065	nan	nan	nan	nan	nan	nan	
180	0.895	-255.9306640625001	1805.370971679688	-866.7772216796877	-390.0259399414064	1759.238037109375	-936.602722167969	-421.9708557128907	1738.071533203125	-774.5375976562502	-428.9208374023439	1560.762939453125	-864.262390136719	-402.0029296875001	1258.05126953125	-864.461608886719	-341.7766418457032	1593.704833984375	-1011.014343261719	-175.0993041992188	1575.371826171875	-1108.416870117188	-148.6464996337891	1585.680908203125	-1066.973388671875	-106.2121963500977	1571.563720703125	-1107.490112304688	-47.20117187500001	1572.030151367188	-1099.528686523438	-57.48542404174806	1494.6689453125	-1086.33544921875	204.4071502685547	1581.51708984375	-977.6443481445315	217.6520538330079	1593.861328125	-875.8353271484377	-338.7451171875001	1571.833374023438	-706.7951660156251	-179.9558715820313	1544.659912109375	-608.4567260742189	-151.1749572753907	1562.773681640625	-647.6690063476564	-109.9379577636719	1546.019165039063	-606.1177368164064	-48.56590652465822	1551.263305664063	-616.3359375000001	-50.0511817932129	1470.840942382813	-632.3466186523439	201.9172515869141	1574.17431640625	-744.1539306640626	214.9918518066407	1564.653564453125	-858.7500000000002	-216.3380432128907	1076.944946289063	-981.0118408203127	-194.1050415039063	1064.103149414063	-764.1658325195314	-377.2492675781251	1114.039672851563	-855.4566040039065	-381.8531188964844	1080.411743164063	-881.7271118164065	-375.0859375000001	1083.895263671875	-824.570739746094	-308.1195678710938	835.4973754882815	-1057.019653320313	-271.1843566894532	759.7150268554689	-1063.972534179688	-223.0068664550782	764.3028564453126	-1060.445434570313	-294.7869262695313	705.1123657226564	-1051.529174804688	-269.9232788085938	547.8620605468751	-1050.3662109375	-253.2598876953126	532.8574829101564	-929.7141113281252	-257.5382690429688	366.8489379882813	-989.6916503906252	-289.1378173828126	326.7768554687501	-1063.063354492188	-258.1970214843751	320.7521057128907	-1027.624877929688	-279.5130310058594	242.9743652343751	-1002.868041992188	-342.4284973144532	133.6743774414063	-1054.931396484375	-321.1768188476563	138.3367462158203	-971.088562011719	-407.8443298339845	111.8148651123047	-1006.864440917969	-200.9966278076172	62.29111862182619	-985.254821777344	-200.9496307373047	63.47522735595705	-1032.794677734375	-237.9962310791016	50.24113845825197	-1079.301635742188	-289.5719604492188	795.1623535156252	-678.4290161132814	-249.5520172119141	740.6618652343751	-681.4934692382814	-218.6947326660157	742.3599853515626	-690.2168579101564	-278.1302490234376	661.6754760742189	-694.6481933593751	-285.0009460449219	545.2053833007814	-700.8430175781251	-301.5285034179688	538.0952148437501	-824.5798339843752	-252.1930694580079	413.7717895507814	-729.5013427734376	-321.7214660644532	348.3019104003907	-674.5557861328126	-282.1157531738282	338.1229858398438	-695.3213500976564	-277.8470153808594	286.3041076660157	-721.3667602539064	-351.9149475097657	140.0731811523438	-697.7771606445314	-414.2948303222657	113.0608978271485	-737.7326049804689	-212.2968902587891	65.87132263183595	-773.033874511719	-203.8556213378907	61.59139251708986	-736.6423950195314	-239.5819244384766	48.5845184326172	-681.1679687500001	-285.8061523437501	1541.078125	-869.8569335937502	nan	nan	nan	nan	nan	nan	
181	0.9	-255.7431182861329	1805.328369140625	-867.0413208007815	-390.0709533691407	1759.328247070313	-936.8383789062502	-422.0066223144532	1738.0478515625	-774.6687622070315	-429.0856018066407	1560.821044921875	-864.6013183593752	-402.1224670410157	1257.946411132813	-864.7056884765627	-341.8848266601563	1593.673461914063	-1011.221557617188	-175.0871887207032	1575.310913085938	-1108.63671875	-148.6488952636719	1585.50244140625	-1067.101684570313	-106.3498916625977	1571.6728515625	-1107.732055664063	-48.35736465454103	1570.73828125	-1097.34619140625	-57.54669570922853	1494.5849609375	-1086.559936523438	204.3743133544922	1581.448974609375	-977.939392089844	217.7254180908204	1593.411010742188	-875.7256469726565	-338.8586425781251	1571.841186523438	-707.0546875000001	-180.1341400146485	1544.715454101563	-608.4284057617189	-151.1601715087891	1562.982055664063	-647.9688110351564	-110.0245361328125	1545.99951171875	-606.2854003906251	-48.68778228759767	1551.377197265625	-616.5109863281251	-50.13158035278322	1470.718017578125	-632.4745483398439	201.8896789550782	1573.965698242188	-744.3134155273439	215.4586791992188	1565.701171875	-858.8943481445315	-216.4393157958985	1076.859008789063	-981.1979980468752	-194.2463684082032	1064.116088867188	-764.3711547851564	-377.4035034179688	1114.01708984375	-855.705993652344	-382.0189514160157	1080.437744140625	-881.891296386719	-375.2317504882813	1083.881958007813	-824.8039550781252	-307.9656982421876	835.3072509765627	-1057.251831054688	-270.9454040527344	759.6972656250001	-1064.109130859375	-222.8339080810547	764.2563476562501	-1060.53857421875	-294.5119323730469	704.9128417968751	-1051.806762695313	-269.5700683593751	547.7150878906251	-1050.527099609375	-253.1245727539063	532.8446044921876	-929.9185180664065	-257.0918579101563	366.5965881347657	-989.7938232421877	-288.9555358886719	326.7412109375001	-1063.072143554688	-258.3770141601563	321.7664794921876	-1027.633178710938	-279.5654296875001	243.0332794189454	-1002.872314453125	-342.4543762207032	133.6907958984375	-1054.93896484375	-321.2191467285157	138.3323516845703	-971.1129150390627	-407.9261169433595	111.8866195678711	-1006.818237304688	-201.3529205322266	62.3418655395508	-985.361511230469	-200.8863830566407	63.28409576416017	-1032.759399414063	-238.0011444091797	50.24279022216798	-1079.30126953125	-289.5147399902344	795.0706176757815	-678.5992431640626	-249.5176696777344	740.5905761718751	-681.5487670898439	-218.572982788086	742.3827514648439	-690.3707885742189	-277.9236145019532	661.5989379882814	-694.7999877929689	-284.8375549316407	545.3029174804689	-701.0349121093751	-301.4044189453126	538.0381469726564	-824.6586914062502	-252.1301269531251	413.7590637207032	-729.5933227539064	-321.6541748046876	348.2862854003907	-674.5977783203126	-281.8701477050782	338.0488586425782	-695.4833984375001	-277.7576904296876	286.3283386230469	-721.3960571289064	-351.7443542480469	139.7515258789063	-697.4687500000001	-414.3076477050782	113.0489807128907	-737.6964721679689	-212.2676696777344	65.98960113525392	-773.0083618164065	-203.7787322998047	61.46892547607423	-736.6564941406251	-239.5718841552735	48.59148025512697	-681.1652832031251	-285.9338684082032	1540.96044921875	-870.0985107421877	nan	nan	nan	nan	nan	nan	
182	0.905	-255.5966491699219	1805.3974609375	-867.251159667969	-390.0549621582032	1759.264282226563	-937.072692871094	-422.0447082519532	1738.14013671875	-774.9333496093752	-429.1600646972657	1560.896118164063	-864.9208984375002	-402.2717590332032	1257.836181640625	-864.9538574218752	-341.9199829101563	1593.612915039063	-1011.490356445313	-175.1583862304688	1575.188232421875	-1108.875854492188	-148.6155548095703	1585.496337890625	-1067.319213867188	-106.2714996337891	1571.672119140625	-1108.076416015625	-48.49628067016603	1570.686645507813	-1097.538330078125	-57.5920753479004	1494.551635742188	-1086.85986328125	204.3345031738282	1581.150146484375	-978.1036376953127	217.6377563476563	1593.226928710938	-875.969177246094	-338.8999633789063	1571.896850585938	-707.3245849609376	-180.1946258544922	1544.797973632813	-608.7001342773439	-151.238021850586	1562.916748046875	-648.2094726562501	-110.1765975952149	1545.931884765625	-606.4932250976564	-48.77047348022462	1551.188232421875	-616.6500854492189	-50.24577713012697	1470.685546875	-632.7167968750001	201.8602142333985	1573.843872070313	-744.5144042968751	215.5884094238282	1565.50341796875	-859.1003417968752	-216.6097564697266	1076.727172851563	-981.3154907226565	-194.4996948242188	1064.077026367188	-764.4862060546876	-377.4986267089844	1113.991577148438	-855.921813964844	-382.2322082519532	1080.29833984375	-882.0539550781252	-375.3672485351563	1083.745239257813	-824.9716796875002	-307.8453063964844	835.0918579101565	-1057.438110351563	-270.8649902343751	759.5675659179689	-1064.328002929688	-222.6501770019532	764.2047119140626	-1060.677490234375	-294.3362121582032	704.6948852539064	-1051.91552734375	-269.2298278808594	547.5924682617189	-1050.691772460938	-252.8441162109376	532.5548706054689	-929.9329223632815	-256.9940795898438	366.3983154296876	-989.9091796875002	-288.8051757812501	326.6348876953126	-1063.116088867188	-257.9719848632813	320.8924255371094	-1027.721435546875	-279.2098693847657	242.7559356689454	-1002.929260253906	-342.4362792968751	133.6955261230469	-1054.9697265625	-321.1858215332032	138.3910064697266	-971.1011352539065	-407.8954467773439	111.8759689331055	-1006.879638671875	-200.8559112548829	61.98558044433595	-985.3410644531252	-200.8624420166016	63.1985321044922	-1032.767333984375	-238.0258026123047	50.21677780151369	-1079.290893554688	-289.4317321777344	795.031188964844	-678.8845825195314	-249.5112762451172	740.5951538085939	-681.5742797851564	-218.5073852539063	742.3829956054689	-690.4779663085939	-277.7036132812501	661.5383300781251	-694.9750366210939	-284.5998840332032	545.2529296875001	-701.1314086914064	-301.2294921875001	538.0026245117189	-824.756042480469	-252.0047302246094	413.7315979003907	-729.6913452148439	-321.4097290039063	348.1940612792969	-674.6728515625001	-281.7351989746094	338.0332031250001	-695.5504150390626	-277.6787719726563	286.2796936035157	-721.4557495117189	-351.8967285156251	140.0675659179688	-697.8002929687501	-414.2833862304689	113.048210144043	-737.7236938476564	-212.2835540771485	65.9110565185547	-773.0189208984377	-203.8612823486329	61.6184425354004	-736.7008056640626	-239.5647125244141	48.56298065185548	-681.1855468750001	-285.9466857910157	1540.9423828125	-870.3513183593752	nan	nan	nan	nan	nan	nan	
